<svg xmlns="http://www.w3.org/2000/svg" xmlns:xlink="http://www.w3.org/1999/xlink" width="86" height="86" viewBox="0 0 86 86">
  <defs>
    <filter id="Shadow_3" x="9" y="10" width="68" height="68" filterUnits="userSpaceOnUse">
      <feOffset dy="2" input="SourceAlpha"/>
      <feGaussianBlur stdDeviation="2" result="blur"/>
      <feFlood flood-opacity="0.2"/>
      <feComposite operator="in" in2="blur"/>
      <feComposite in="SourceGraphic"/>
    </filter>
    <filter id="Shadow_2" x="0" y="0" width="86" height="86" filterUnits="userSpaceOnUse">
      <feOffset dy="1" input="SourceAlpha"/>
      <feGaussianBlur stdDeviation="5" result="blur-2"/>
      <feFlood flood-opacity="0.122"/>
      <feComposite operator="in" in2="blur-2"/>
      <feComposite in="SourceGraphic"/>
    </filter>
    <filter id="Shadow_1" x="7.5" y="10.5" width="71" height="71" filterUnits="userSpaceOnUse">
      <feOffset dy="4" input="SourceAlpha"/>
      <feGaussianBlur stdDeviation="2.5" result="blur-3"/>
      <feFlood flood-opacity="0.141"/>
      <feComposite operator="in" in2="blur-3"/>
      <feComposite in="SourceGraphic"/>
    </filter>
    <clipPath id="clip-path">
      <circle id="FAB_Mask" data-name="FAB Mask" cx="28" cy="28" r="28" fill="#fff"/>
    </clipPath>
    <clipPath id="clip-path-2">
      <circle id="FAB_Mask-2" data-name="FAB Mask" cx="28" cy="28" r="28" transform="translate(-0.424 19.868)" fill="#fff"/>
    </clipPath>
  </defs>
  <g id="Light_FAB_1._Standard" data-name="Light 🌕/ FAB / 1. Standard" transform="translate(15 14)">
    <g id="Circle_Elevation_Dark_04dp" data-name="Circle Elevation/Dark 🌑/04dp" transform="translate(-109)">
      <g transform="matrix(1, 0, 0, 1, 94, -14)" filter="url(#Shadow_3)">
        <rect id="Shadow_3-2" data-name="Shadow 3" width="56" height="56" rx="28" transform="translate(15 14)" fill="#fff"/>
      </g>
      <g transform="matrix(1, 0, 0, 1, 94, -14)" filter="url(#Shadow_2)">
        <rect id="Shadow_2-2" data-name="Shadow 2" width="56" height="56" rx="28" transform="translate(15 14)" fill="#fff"/>
      </g>
      <g transform="matrix(1, 0, 0, 1, 94, -14)" filter="url(#Shadow_1)">
        <rect id="Shadow_1-2" data-name="Shadow 1" width="56" height="56" rx="28" transform="translate(15 14)" fill="#fff"/>
      </g>
    </g>
    <g id="Fill" clip-path="url(#clip-path)">
      <path id="_FAB_Color" data-name="🎨 FAB Color" d="M0,0H56V56H0Z" fill="#c33a72"/>
    </g>
    <g id="State" transform="translate(0.424 -19.868)" clip-path="url(#clip-path-2)">
      <g id="States_Light_Primary_Container" data-name="States/Light 🌕/Primary Container" transform="translate(2.576 -81.132)">
        <rect id="States_Light_Primary_Container_100_Overlay" data-name="States/Light 🌕/Primary Container 100%/Overlay" width="216" height="216" rx="4" fill="rgba(255,255,255,0)"/>
      </g>
    </g>
    <g id="icon_content_add_24px" data-name="icon/content/add_24px" transform="translate(16 16)">
      <rect id="Boundary" width="24" height="24" fill="none"/>
      <path id="_Color" data-name=" ↳Color" d="M14,8H8v6H6V8H0V6H6V0H8V6h6Z" transform="translate(5 5)" fill="#fff"/>
    </g>
  </g>
</svg>
